<?xml version="1.0" encoding="UTF-8" standalone="no"?>
<!-- Generator: Adobe Illustrator 16.0.0, SVG Export Plug-In . SVG Version: 6.00 Build 0)  -->

<svg
   xmlns:dc="http://purl.org/dc/elements/1.1/"
   xmlns:cc="http://creativecommons.org/ns#"
   xmlns:rdf="http://www.w3.org/1999/02/22-rdf-syntax-ns#"
   xmlns:svg="http://www.w3.org/2000/svg"
   xmlns="http://www.w3.org/2000/svg"
   xmlns:sodipodi="http://sodipodi.sourceforge.net/DTD/sodipodi-0.dtd"
   xmlns:inkscape="http://www.inkscape.org/namespaces/inkscape"
   version="1.1"
   id="Capa_1"
   x="0px"
   y="0px"
   width="577.03px"
   height="577.029px"
   viewBox="0 0 577.03 577.029"
   style="enable-background:new 0 0 577.03 577.029;"
   xml:space="preserve"
   inkscape:version="0.91 r13725"
   sodipodi:docname="polaroid-photo-symbol.svg"><metadata
     id="metadata41"><rdf:RDF><cc:Work
         rdf:about=""><dc:format>image/svg+xml</dc:format><dc:type
           rdf:resource="http://purl.org/dc/dcmitype/StillImage" /></cc:Work></rdf:RDF></metadata><defs
     id="defs39" /><sodipodi:namedview
     pagecolor="#ffffff"
     bordercolor="#666666"
     borderopacity="1"
     objecttolerance="10"
     gridtolerance="10"
     guidetolerance="10"
     inkscape:pageopacity="0"
     inkscape:pageshadow="2"
     inkscape:window-width="760"
     inkscape:window-height="480"
     id="namedview37"
     showgrid="false"
     inkscape:zoom="0.40899158"
     inkscape:cx="288.51501"
     inkscape:cy="288.5145"
     inkscape:window-x="0"
     inkscape:window-y="0"
     inkscape:window-maximized="0"
     inkscape:current-layer="Capa_1" /><path
     inkscape:connector-curvature="0"
     style="fill:#4385bd;fill-opacity:1"
     id="path5"
     d="M 511.458,0 65.572,0 C 46.25,0 30.6,15.649 30.6,34.971 l 0,507.085 c 0,19.322 15.65,34.973 34.972,34.973 l 445.886,0 c 19.321,0 34.972,-15.65 34.972,-34.973 l 0,-507.085 C 546.429,15.649 530.779,0 511.458,0 Z m -445.886,34.971 445.886,0 0,402.171 -445.886,0 0,-402.171 z m 428.399,384.685 -410.914,0 0,-112.144 c 0,-12.273 4.311,-24.165 12.17,-33.598 L 197.151,151.689 c 10.928,-12.765 30.95,-11.978 40.917,1.574 l 116.017,157.109 59.627,-62.948 c 10.403,-10.929 27.715,-10.929 38.118,0 l 29.744,35.172 c 7.999,9.469 12.396,21.463 12.396,33.87 l 0,103.19 z M 380.315,126.771 c 0,-26.579 21.507,-48.086 48.085,-48.086 26.578,0 48.086,21.507 48.086,48.086 0,26.578 -21.508,48.085 -48.086,48.085 -26.578,0 -48.085,-21.506 -48.085,-48.085 z" /><g
     id="g7" /><g
     id="g9" /><g
     id="g11" /><g
     id="g13" /><g
     id="g15" /><g
     id="g17" /><g
     id="g19" /><g
     id="g21" /><g
     id="g23" /><g
     id="g25" /><g
     id="g27" /><g
     id="g29" /><g
     id="g31" /><g
     id="g33" /><g
     id="g35" /></svg>